<svg width="119" height="24" viewBox="0 0 119 24" fill="none" xmlns="http://www.w3.org/2000/svg">
<path d="M6.34105 3.65076C6.42765 1.92237 5.32327 0.0737165 3.454 0.0538118C3.16784 -0.0623773 2.62595 0.0337998 2.33739 0.115238C0.574161 0.612999 -0.372239 2.41122 0.13745 4.15926C0.436577 5.18535 1.02835 5.6683 1.92879 6.16573L1.92814 13.5072C1.92755 14.0421 1.83345 14.5618 2.24205 14.9774C2.70301 15.4465 3.502 15.4676 3.96893 14.9923C4.31176 14.6434 4.27774 14.1793 4.27796 13.7272L4.2776 9.34676V6.16573C4.58386 6.084 4.85313 5.89791 5.11023 5.71939C6.01956 6.18568 7.04069 6.75974 7.92234 7.2745L8.8302 7.81123C9.27303 8.07374 9.74769 8.41739 10.2897 8.27468C11.1754 8.04157 11.5233 6.93878 10.7849 6.31034C10.6089 6.16049 10.3915 6.05249 10.1921 5.93728L9.31673 5.42711C8.32423 4.83747 7.34651 4.21814 6.34105 3.65076Z" fill="white"/>
<path d="M21.9999 6.21343C22.2344 6.0777 22.4766 5.94597 22.6958 5.7863C25.0247 4.09088 24.0738 0.503495 21.1179 0.0538398C19.0385 -0.178429 17.2486 1.73973 17.6353 3.81934L5.49537 17.4988C5.28496 17.735 5.065 17.9675 4.87745 18.2226C3.4009 17.2448 1.30074 17.6684 0.409699 19.2415C-0.448572 20.7567 0.0882844 22.7504 1.62056 23.5972C4.065 24.9479 6.99232 22.6846 6.20499 20.0307C6.69159 19.557 7.13384 19.0337 7.58977 18.5304L16.458 8.7308C17.2981 7.79394 18.1437 6.84492 19.0228 5.94597L19.5949 6.21343L19.5953 14.2773C19.5953 15.4698 19.5807 16.6637 19.5949 17.8561C19.2898 17.8911 19.0763 18.0563 18.8291 18.2226C17.8262 17.6815 16.7912 17.0716 15.8054 16.4985C15.3546 16.2368 14.6277 15.7565 14.1572 15.5979C12.9849 15.2016 12.1285 16.8314 12.9948 17.585C13.3196 17.8674 13.7573 18.0628 14.1299 18.2823C15.2744 18.9558 16.4452 19.5864 17.5931 20.2549C17.2632 24.3031 22.2927 25.1994 23.6572 22.1711C24.395 20.5333 23.6408 18.5832 21.9999 17.8561V7.39526C21.9995 7.00598 21.9678 6.59995 21.9999 6.21343Z" fill="white"/>
<path d="M21.9999 6.21343C22.2344 6.0777 22.4766 5.94597 22.6958 5.7863C25.0247 4.09088 24.0738 0.503495 21.1179 0.0538398C19.0385 -0.178429 17.2486 1.73973 17.6353 3.81934L5.49537 17.4988C5.28496 17.735 5.065 17.9675 4.87745 18.2226C3.4009 17.2448 1.30074 17.6684 0.409699 19.2415C-0.448572 20.7567 0.0882844 22.7504 1.62056 23.5972C4.065 24.9479 6.99232 22.6846 6.20499 20.0307C6.69159 19.557 7.13384 19.0337 7.58977 18.5304L16.458 8.7308C17.2981 7.79394 18.1437 6.84492 19.0228 5.94597L19.5949 6.21343L19.5953 14.2773C19.5953 15.4698 19.5807 16.6637 19.5949 17.8561C19.2898 17.8911 19.0763 18.0563 18.8291 18.2226C17.8262 17.6815 16.7912 17.0716 15.8054 16.4985C15.3546 16.2368 14.6277 15.7565 14.1572 15.5979C12.9849 15.2016 12.1285 16.8314 12.9948 17.585C13.3196 17.8674 13.7573 18.0628 14.1299 18.2823C15.2744 18.9558 16.4452 19.5864 17.5931 20.2549C17.2632 24.3031 22.2927 25.1994 23.6572 22.1711C24.395 20.5333 23.6408 18.5832 21.9999 17.8561V7.39526C21.9995 7.00598 21.9678 6.59995 21.9999 6.21343Z" fill="white"/>
<path d="M6.34105 3.65076C6.42765 1.92237 5.32327 0.0737165 3.454 0.0538118C3.16784 -0.0623773 2.62595 0.0337998 2.33739 0.115238C0.574161 0.612999 -0.372239 2.41122 0.13745 4.15926C0.436577 5.18535 1.02835 5.6683 1.92879 6.16573L1.92814 13.5072C1.92755 14.0421 1.83345 14.5618 2.24205 14.9774C2.70301 15.4465 3.502 15.4676 3.96893 14.9923C4.31176 14.6434 4.27774 14.1793 4.27796 13.7272L4.2776 9.34676V6.16573C4.58386 6.084 4.85313 5.89791 5.11023 5.71939C6.01956 6.18568 7.04069 6.75974 7.92234 7.2745L8.8302 7.81123C9.27303 8.07374 9.74769 8.41739 10.2897 8.27468C11.1754 8.04157 11.5233 6.93878 10.7849 6.31034C10.6089 6.16049 10.3915 6.05249 10.1921 5.93728L9.31673 5.42711C8.32423 4.83747 7.34651 4.21814 6.34105 3.65076Z" fill="white"/>
<g clip-path="url(#clip0_239_1429)">
<path d="M38.8523 8.87988C37.2551 8.87988 36.3999 9.836 36.3999 11.53V18.8463H32V4.50461H34.473L36.0186 6.15703C36.7502 5.08659 37.8528 4.50461 39.3366 4.50461H40.6658V8.87988H38.8523Z" fill="white"/>
<path d="M41.726 4.50461H46.1259V12.5588C46.1259 14.0554 47.0945 15.0842 48.5164 15.0842C49.9385 15.0842 50.8865 14.0554 50.8865 12.5588V4.50461H55.2863V18.8463H52.8133L51.3089 17.2355C50.2888 18.4619 48.8359 19.1789 47.146 19.1789C43.9414 19.1789 41.726 16.8198 41.726 13.3799V4.50461Z" fill="white"/>
<path d="M70.2583 18.835H65.8584V10.8327C65.8584 9.29464 64.8795 8.24498 63.406 8.24498C61.9325 8.24498 60.9536 9.29464 60.9536 10.8327V18.835H56.5537V4.49327H59.0268L60.5517 6.1249C61.5718 4.87779 63.0453 4.16071 64.7764 4.16071C68.0222 4.16071 70.2583 6.551 70.2583 10.0325V18.8247V18.835Z" fill="white"/>
<path d="M69.7753 4.50461H74.371L76.5348 12.642L79.1418 4.50461H82.3464L84.9533 12.6732L87.1172 4.50461H91.3419L86.8699 18.8463H83.0264L80.5019 10.9688L77.9568 18.8463H74.3504L69.7959 4.50461H69.7753Z" fill="white"/>
<path d="M97.3286 4.17285C101.069 4.17285 103.326 6.25137 103.326 9.72248V18.8471H100.832L99.544 17.4442C98.5754 18.5769 97.1947 19.1797 95.5151 19.1797C92.5268 19.1797 90.4248 17.309 90.4248 14.6694C90.4248 12.0296 92.465 10.2109 96.02 10.2109H99.0494V9.74327C99.0494 8.51694 98.3693 7.85181 97.1019 7.85181C95.8345 7.85181 95.2265 8.4338 95.1544 9.4107H90.8473C91.0945 6.24097 93.6397 4.17285 97.3286 4.17285ZM99.0494 13.6301V13.0065H96.4837C95.3811 13.0065 94.7422 13.5158 94.7422 14.3887C94.7422 15.2617 95.4945 15.8853 96.7516 15.8853C98.0086 15.8853 99.0494 15.1058 99.0494 13.6301Z" fill="white"/>
<path d="M110.551 23.6044H105.904L108.397 17.5871L102.627 4.49246H107.758L110.746 12.2973L113.559 4.49246H118.207L110.551 23.6044Z" fill="white"/>
</g>
<defs>
<clipPath id="clip0_239_1429">
<rect width="87" height="20" fill="white" transform="translate(32 4)"/>
</clipPath>
</defs>
</svg>
