<svg width="64" height="21" viewBox="0 0 64 21" fill="none" xmlns="http://www.w3.org/2000/svg">
<path d="M21.1432 4.97499L17.8826 6.85737C16.4709 4.84053 14.6221 3.73127 11.6641 3.73127C7.9329 3.73127 5.51269 6.08425 5.51269 9.74817C5.51269 13.3449 8.03374 15.7651 11.6641 15.7651C14.6221 15.7651 16.4709 14.6558 17.8826 12.639L21.1432 14.5214C19.2272 17.7819 16.0675 19.4962 11.7313 19.4962C5.78161 19.4962 1.34456 15.7651 1.34456 9.74817C1.34456 3.73127 5.88245 0.000116651 11.7313 0.000116651C16.0675 0.000116651 19.2272 1.71443 21.1432 4.97499ZM42.752 4.16825L39.2898 12.5381H47.5588L44.1974 4.16825H42.752ZM40.1301 0.437099H46.9538L54.853 19.0256H50.416L49.2059 16.2021H37.7435L36.5334 19.0256H32.0291L40.1301 0.437099ZM57.5508 0.437099H61.7526V19.0256H57.5508V0.437099Z" fill="#28282B"/>
<path d="M26.7229 13.5466C28.3699 13.5466 29.7145 14.8575 29.7145 16.5046C29.7145 18.1517 28.3699 19.3618 26.7229 19.3618C25.0758 19.3618 23.7648 18.1517 23.7648 16.5046C23.7648 14.8575 25.0758 13.5466 26.7229 13.5466Z" fill="#386FDE"/>
</svg>
