<svg width="280" height="57" viewBox="0 0 280 57" fill="none" xmlns="http://www.w3.org/2000/svg">
<path d="M14.9201 8.59003C15.1239 4.52323 12.5253 0.17345 8.12706 0.126616C7.45373 -0.14677 6.17872 0.079529 5.49974 0.271148C1.35097 1.44235 -0.875857 5.67346 0.323412 9.78649C1.02724 12.2008 2.41965 13.3372 4.53833 14.5076L4.53679 31.7815C4.53542 33.0403 4.314 34.2632 5.27541 35.241C6.36003 36.3446 8.23999 36.3943 9.33866 35.2761C10.1453 34.455 10.0653 33.363 10.0658 32.2992L10.0649 21.9924V14.5076C10.7856 14.3153 11.4191 13.8774 12.0241 13.4574C14.1637 14.5545 16.5663 15.9053 18.6408 17.1165L20.777 18.3794C21.8189 18.997 22.9357 19.8056 24.2111 19.4698C26.295 18.9213 27.1136 16.3265 25.3763 14.8479C24.9622 14.4953 24.4507 14.2412 23.9815 13.9701L21.9217 12.7697C19.5864 11.3823 17.2859 9.92503 14.9201 8.59003Z" fill="white"/>
<path d="M51.7644 14.6197C52.3163 14.3004 52.8861 13.9904 53.4019 13.6147C58.8816 9.62549 56.6443 1.18459 49.6891 0.126581C44.7964 -0.419934 40.5849 4.09338 41.4949 8.98659L12.9303 41.1736C12.4352 41.7292 11.9176 42.2764 11.4764 42.8766C8.00211 40.5759 3.06057 41.5726 0.963994 45.2739C-1.05547 48.8392 0.207724 53.5303 3.81307 55.5227C9.56469 58.7009 16.4525 53.3753 14.6 47.131C15.7449 46.0163 16.7855 44.785 17.8583 43.6009L38.7247 20.543C40.7015 18.3386 42.6911 16.1056 44.7596 13.9904L46.1057 14.6197L46.1066 33.5936C46.1066 36.3994 46.0723 39.2086 46.1057 42.0144C45.3876 42.0966 44.8855 42.4853 44.3037 42.8766C41.9439 41.6034 39.5087 40.1684 37.1892 38.8199C36.1284 38.2043 34.4181 37.0741 33.311 36.7008C30.5527 35.7683 28.5377 39.6033 30.5761 41.3765C31.3402 42.0409 32.3702 42.5007 33.2467 43.017C35.9399 44.6018 38.6947 46.0856 41.3955 47.6585C40.6192 57.1837 52.4534 59.2926 55.664 52.1672C57.4 48.3135 55.6255 43.7251 51.7644 42.0144V17.4005C51.7636 16.4845 51.689 15.5292 51.7644 14.6197Z" fill="white"/>
<path d="M51.7644 14.6197C52.3163 14.3004 52.8861 13.9904 53.4019 13.6147C58.8816 9.62549 56.6443 1.18459 49.6891 0.126581C44.7964 -0.419934 40.5849 4.09338 41.4949 8.98659L12.9303 41.1736C12.4352 41.7292 11.9176 42.2764 11.4764 42.8766C8.00211 40.5759 3.06057 41.5726 0.963994 45.2739C-1.05547 48.8392 0.207724 53.5303 3.81307 55.5227C9.56469 58.7009 16.4525 53.3753 14.6 47.131C15.7449 46.0163 16.7855 44.785 17.8583 43.6009L38.7247 20.543C40.7015 18.3386 42.6911 16.1056 44.7596 13.9904L46.1057 14.6197L46.1066 33.5936C46.1066 36.3994 46.0723 39.2086 46.1057 42.0144C45.3876 42.0966 44.8855 42.4853 44.3037 42.8766C41.9439 41.6034 39.5087 40.1684 37.1892 38.8199C36.1284 38.2043 34.4181 37.0741 33.311 36.7008C30.5527 35.7683 28.5377 39.6033 30.5761 41.3765C31.3402 42.0409 32.3702 42.5007 33.2467 43.017C35.9399 44.6018 38.6947 46.0856 41.3955 47.6585C40.6192 57.1837 52.4534 59.2926 55.664 52.1672C57.4 48.3135 55.6255 43.7251 51.7644 42.0144V17.4005C51.7636 16.4845 51.689 15.5292 51.7644 14.6197Z" fill="white"/>
<path d="M14.9201 8.59003C15.1239 4.52323 12.5253 0.17345 8.12706 0.126616C7.45373 -0.14677 6.17872 0.079529 5.49974 0.271148C1.35097 1.44235 -0.875857 5.67346 0.323412 9.78649C1.02724 12.2008 2.41965 13.3372 4.53833 14.5076L4.53679 31.7815C4.53542 33.0403 4.314 34.2632 5.27541 35.241C6.36003 36.3446 8.23999 36.3943 9.33866 35.2761C10.1453 34.455 10.0653 33.363 10.0658 32.2992L10.0649 21.9924V14.5076C10.7856 14.3153 11.4191 13.8774 12.0241 13.4574C14.1637 14.5545 16.5663 15.9053 18.6408 17.1165L20.777 18.3794C21.8189 18.997 22.9357 19.8056 24.2111 19.4698C26.295 18.9213 27.1136 16.3265 25.3763 14.8479C24.9622 14.4953 24.4507 14.2412 23.9815 13.9701L21.9217 12.7697C19.5864 11.3823 17.2859 9.92503 14.9201 8.59003Z" fill="white"/>
<g clip-path="url(#clip0_267_486)">
<path d="M91.4172 20.8944C87.6591 20.8944 85.6468 23.1441 85.6468 27.1299V44.3448H75.2941V10.5996H81.113L84.7497 14.4877C86.4711 11.969 89.0654 10.5996 92.5567 10.5996H95.6843V20.8944H91.4172Z" fill="white"/>
<path d="M98.1788 10.5996H108.532V29.5507C108.532 33.072 110.811 35.4927 114.156 35.4927C117.502 35.4927 119.733 33.072 119.733 29.5507V10.5996H130.085V44.3448H124.267L120.727 40.5546C118.326 43.4402 114.908 45.1273 110.932 45.1273C103.391 45.1273 98.1788 39.5766 98.1788 31.4826V10.5996Z" fill="white"/>
<path d="M165.314 44.3178H154.961V25.4889C154.961 21.8699 152.658 19.4001 149.191 19.4001C145.723 19.4001 143.42 21.8699 143.42 25.4889V44.3178H133.068V10.5725H138.887L142.475 14.4117C144.875 11.4773 148.342 9.79004 152.415 9.79004C160.052 9.79004 165.314 15.4143 165.314 23.606V44.2935V44.3178Z" fill="white"/>
<path d="M164.177 10.5996H174.991L180.082 29.7464L186.216 10.5996H193.756L199.89 29.8197L204.982 10.5996H214.922L204.4 44.3448H195.356L189.416 25.8094L183.428 44.3448H174.942L164.226 10.5996H164.177Z" fill="white"/>
<path d="M229.008 9.81885C237.809 9.81885 243.119 14.7095 243.119 22.8768V44.3466H237.252L234.221 41.0455C231.942 43.7108 228.693 45.1291 224.741 45.1291C217.71 45.1291 212.764 40.7274 212.764 34.5166C212.764 28.3054 217.565 24.0261 225.929 24.0261H233.058V22.9257C233.058 20.0402 231.457 18.4752 228.475 18.4752C225.493 18.4752 224.062 19.8446 223.893 22.1432H213.758C214.34 14.685 220.329 9.81885 229.008 9.81885ZM233.058 32.0712V30.604H227.02C224.426 30.604 222.923 31.8022 222.923 33.8562C222.923 35.9103 224.693 37.3776 227.651 37.3776C230.609 37.3776 233.058 35.5435 233.058 32.0712Z" fill="white"/>
<path d="M260.119 55.54H249.185L255.052 41.3817L241.475 10.5708H253.549L260.58 28.9351L267.199 10.5708H278.134L260.119 55.54Z" fill="white"/>
</g>
<defs>
<clipPath id="clip0_267_486">
<rect width="204.706" height="47.0588" fill="white" transform="translate(75.2941 9.41211)"/>
</clipPath>
</defs>
</svg>
