<svg width="230" height="35" viewBox="0 0 230 35" fill="none" xmlns="http://www.w3.org/2000/svg">
<path d="M36.0217 8.47568L30.4667 11.6827C28.0615 8.24661 24.9117 6.35675 19.8721 6.35675C13.5153 6.35675 9.392 10.3655 9.392 16.6078C9.392 22.7355 13.6871 26.8588 19.8721 26.8588C24.9117 26.8588 28.0615 24.9689 30.4667 21.5328L36.0217 24.7399C32.7575 30.2949 27.3742 33.2156 19.9866 33.2156C9.85014 33.2156 2.29073 26.8588 2.29073 16.6078C2.29073 6.35675 10.0219 -2.63586e-05 19.9866 -2.63586e-05C27.3742 -2.63586e-05 32.7575 2.92066 36.0217 8.47568ZM41.0609 0.744462H48.2194V25.9425H70.0387V32.4138H41.0609V0.744462ZM91.572 7.10124L85.6733 21.361H99.7613L94.0345 7.10124H91.572ZM87.105 0.744462H98.7305L112.189 32.4138H104.629L102.567 27.6033H83.039L80.9773 32.4138H73.3034L87.105 0.744462Z" fill="white"/>
<circle cx="115" cy="18.5249" r="4.25926" fill="#C8AE30"/>
<path d="M121.836 0.744462H128.995V16.9514C128.995 23.1364 131.801 26.9161 138.043 26.9161C144.286 26.9161 147.092 23.1364 147.092 16.9514V0.744462H154.25V16.8941C154.25 27.3742 147.951 33.2156 138.043 33.2156C128.136 33.2156 121.836 27.3742 121.836 16.8941V0.744462ZM159.705 0.744462H176.026C184.731 0.744462 193.092 7.04397 193.092 16.5505C193.092 26.057 184.731 32.4138 176.026 32.4138H159.705V0.744462ZM166.864 7.21578V25.8852H176.026C181.753 25.8852 185.934 21.991 185.934 16.5505C185.934 11.11 181.753 7.21578 176.026 7.21578H166.864ZM198.238 0.744462H226.987V7.21578H205.397V13.0571H224.811V19.5285H205.397V25.828H227.788V32.4138H198.238V0.744462Z" fill="white"/>
</svg>
