<svg width="135" height="21" viewBox="0 0 135 21" fill="none" xmlns="http://www.w3.org/2000/svg">
<path d="M21.1432 4.97487L17.8826 6.85725C16.4709 4.84041 14.6221 3.73115 11.6641 3.73115C7.9329 3.73115 5.51269 6.08413 5.51269 9.74805C5.51269 13.3447 8.03374 15.765 11.6641 15.765C14.6221 15.765 16.4709 14.6557 17.8826 12.6389L21.1432 14.5212C19.2272 17.7818 16.0675 19.4961 11.7313 19.4961C5.78161 19.4961 1.34456 15.765 1.34456 9.74805C1.34456 3.73115 5.88245 -5.41978e-06 11.7313 -5.41978e-06C16.0675 -5.41978e-06 19.2272 1.71431 21.1432 4.97487ZM24.101 0.436977H28.3027V15.2271H41.1096V19.0255H24.101V0.436977ZM53.7488 4.16813L50.2865 12.538H58.5556L55.1942 4.16813H53.7488ZM51.1269 0.436977H57.9505L65.8498 19.0255H61.4128L60.2027 16.2019H48.7403L47.5302 19.0255H43.0259L51.1269 0.436977Z" fill="white"/>
<circle cx="67.5" cy="10.5255" r="2.5" fill="#C8AE30"/>
<path d="M71.5126 0.436977H75.7144V9.94974C75.7144 13.58 77.3615 15.7986 81.0254 15.7986C84.6893 15.7986 86.3364 13.58 86.3364 9.94974V0.436977H90.5381V9.91612C90.5381 16.0675 86.8406 19.4961 81.0254 19.4961C75.2102 19.4961 71.5126 16.0675 71.5126 9.91612V0.436977ZM93.7399 0.436977H103.32C108.429 0.436977 113.337 4.13452 113.337 9.71444C113.337 15.2944 108.429 19.0255 103.32 19.0255H93.7399V0.436977ZM97.9416 4.23536V15.1935H103.32C106.681 15.1935 109.135 12.9078 109.135 9.71444C109.135 6.52111 106.681 4.23536 103.32 4.23536H97.9416ZM116.357 0.436977H133.231V4.23536H120.559V7.66398H131.954V11.4624H120.559V15.1599H133.702V19.0255H116.357V0.436977Z" fill="white"/>
</svg>
