<svg width="286" height="49" viewBox="0 0 286 49" fill="none" xmlns="http://www.w3.org/2000/svg">
<path d="M4.03368 -0.000181472H14.1179V35.4962H44.8545V44.6123H4.03368V-0.000181472ZM51.067 -0.000181472H61.1512V35.4962H91.8878V44.6123H51.067V-0.000181472ZM122.222 8.95458L113.912 29.0423H133.758L125.691 8.95458H122.222ZM115.929 -0.000181472H132.306L151.264 44.6123H140.615L137.711 37.8357H110.201L107.297 44.6123H96.4868L115.929 -0.000181472Z" fill="#28282B"/>
<path d="M162.434 -0.000181472H175.906L191.557 32.3499H191.96L208.256 -0.000181472H221.164V44.6123H211.241V13.3916H210.757L195.671 44.6123H187.201L172.679 13.3916H172.195V44.6123H162.434V-0.000181472ZM253.363 8.95458L245.054 29.0423H264.899L256.832 8.95458H253.363ZM247.07 -0.000181472H263.447L282.406 44.6123H271.757L268.852 37.8357H241.343L238.438 44.6123H227.628L247.07 -0.000181472Z" fill="#28282B"/>
<circle cx="152.4" cy="25.2124" r="6" fill="#386FDE"/>
</svg>
