<svg width="119" height="20" viewBox="0 0 119 20" fill="none" xmlns="http://www.w3.org/2000/svg">
<path d="M1.6807 0.411464H5.88245V15.2016H18.6894V19H1.6807V0.411464ZM21.2779 0.411464H25.4797V15.2016H38.2866V19H21.2779V0.411464ZM50.9257 4.14262L47.4635 12.5125H55.7325L52.3711 4.14262H50.9257ZM48.3038 0.411464H55.1275L63.0268 19H58.5897L57.3796 16.1764H45.9172L44.7071 19H40.2029L48.3038 0.411464Z" fill="#28282B"/>
<path d="M67.6807 0.411464H73.2942L79.8153 13.8907H79.9834L86.7734 0.411464H92.1517V19H88.0172V5.99139H87.8155L81.5297 19H78.0002L71.9497 5.99139H71.748V19H67.6807V0.411464ZM105.568 4.14262L102.106 12.5125H110.375L107.013 4.14262H105.568ZM102.946 0.411464H109.77L117.669 19H113.232L112.022 16.1764H100.559L99.3493 19H94.845L102.946 0.411464Z" fill="#28282B"/>
<circle cx="63.5" cy="10.5" r="2.5" fill="#386FDE"/>
</svg>
