<svg width="119" height="17" viewBox="0 0 119 17" fill="none" xmlns="http://www.w3.org/2000/svg">
<path d="M17.1043 4.10152L14.4666 5.62432C13.3245 3.99275 11.8289 3.09539 9.43592 3.09539C6.41752 3.09539 4.45963 4.99889 4.45963 7.96291C4.45963 10.8725 6.49909 12.8304 9.43592 12.8304C11.8289 12.8304 13.3245 11.9331 14.4666 10.3015L17.1043 11.8243C15.5543 14.462 12.9982 15.8488 9.49031 15.8488C4.67717 15.8488 1.08771 12.8304 1.08771 7.96291C1.08771 3.09539 4.75875 0.0769799 9.49031 0.0769799C12.9982 0.0769799 15.5543 1.46382 17.1043 4.10152ZM22.4131 7.96291C22.4131 11.0629 24.6157 12.9392 27.4438 12.9392C30.2718 12.9392 32.4744 11.0629 32.4744 7.96291C32.4744 4.86292 30.2718 2.98662 27.4438 2.98662C24.6157 2.98662 22.4131 4.86292 22.4131 7.96291ZM35.8735 7.96291C35.8735 12.6945 32.0122 15.8488 27.4438 15.8488C22.8754 15.8488 19.014 12.6945 19.014 7.96291C19.014 3.23135 22.8754 0.0769799 27.4438 0.0769799C32.0122 0.0769799 35.8735 3.23135 35.8735 7.96291Z" fill="#28282B"/>
<path d="M45.1596 0.353522H54.0245C57.5596 0.353522 60.2245 2.7193 60.2245 6.25437C60.2245 9.78944 57.5596 12.0465 54.0245 12.0465H48.5587V15.3912H45.1596V0.353522ZM48.5587 3.45351V8.94647H53.8885C55.6289 8.94647 56.8254 7.99472 56.8254 6.25437C56.8254 4.51403 55.6289 3.45351 53.8885 3.45351H48.5587ZM62.4207 0.353522H65.8198V15.3912H62.4207V0.353522ZM68.5285 0.353522H71.9276V12.3184H82.2881V15.3912H68.5285V0.353522ZM87.0326 7.88594C87.0326 10.9859 89.2352 12.8622 92.0633 12.8622C94.8913 12.8622 97.094 10.9859 97.094 7.88594C97.094 4.78596 94.8913 2.90965 92.0633 2.90965C89.2352 2.90965 87.0326 4.78596 87.0326 7.88594ZM100.493 7.88594C100.493 12.6175 96.6317 15.7719 92.0633 15.7719C87.4949 15.7719 83.6335 12.6175 83.6335 7.88594C83.6335 3.15439 87.4949 1.45488e-05 92.0633 1.45488e-05C96.6317 1.45488e-05 100.493 3.15439 100.493 7.88594ZM101.923 0.353522H117.558V3.39912H111.44V15.3912H108.041V3.39912H101.923V0.353522Z" fill="#28282B"/>
<circle cx="40.0224" cy="8.70579" r="2.02244" fill="#386FDE"/>
</svg>
