<svg width="11" height="12" viewBox="0 0 11 12" fill="none" xmlns="http://www.w3.org/2000/svg">
<path d="M5.13497 0C4.68402 0.00417137 4.25288 0.185866 3.93497 0.505714L0.249251 4.18286C0.0896074 4.34345 0 4.5607 0 4.78714C0 5.01359 0.0896074 5.23083 0.249251 5.39143C0.328934 5.47177 0.423735 5.53553 0.528185 5.57905C0.632636 5.62257 0.744669 5.64497 0.857823 5.64497C0.970976 5.64497 1.08301 5.62257 1.18746 5.57905C1.29191 5.53553 1.38671 5.47177 1.46639 5.39143L4.27782 2.57143L4.27782 11.1429C4.27782 11.3702 4.36813 11.5882 4.52887 11.7489C4.68962 11.9097 4.90764 12 5.13497 12C5.36229 12 5.58031 11.9097 5.74106 11.7489C5.9018 11.5882 5.99211 11.3702 5.99211 11.1429L5.99211 2.57143L8.81211 5.39143C8.97238 5.55283 9.19019 5.64396 9.41765 5.64476C9.6451 5.64557 9.86356 5.55598 10.025 5.39571C10.1864 5.23545 10.2775 5.01763 10.2783 4.79017C10.2791 4.56272 10.1895 4.34426 10.0293 4.18286L6.34354 0.505714C6.02352 0.183782 5.58889 0.00191402 5.13497 0Z" fill="#202020"/>
</svg>
