<svg width="17" height="15" viewBox="0 0 17 15" fill="none" xmlns="http://www.w3.org/2000/svg">
<path fill-rule="evenodd" clip-rule="evenodd" d="M-3.27164e-07 7.4846C7.04551e-05 7.15311 0.131813 6.83522 0.36625 6.60085L6.61625 0.350849C6.852 0.123151 7.16775 -0.00284226 7.4955 6.34808e-06C7.82325 0.00285401 8.13676 0.134316 8.36852 0.366076C8.60028 0.597836 8.73174 0.911353 8.73459 1.2391C8.73744 1.56684 8.61145 1.8826 8.38375 2.11835L3.0175 7.4846L8.38375 12.8508C8.61145 13.0866 8.73744 13.4024 8.73459 13.7301C8.73174 14.0578 8.60028 14.3714 8.36852 14.6031C8.13676 14.8349 7.82325 14.9663 7.4955 14.9692C7.16775 14.972 6.852 14.846 6.61625 14.6183L0.36625 8.36835C0.131813 8.13398 7.04841e-05 7.81609 -3.27164e-07 7.4846ZM7.5 7.4846C7.50007 7.15311 7.63181 6.83522 7.86625 6.60085L14.1162 0.350849C14.352 0.123151 14.6678 -0.00284259 14.9955 6.02025e-06C15.3232 0.00285368 15.6368 0.134316 15.8685 0.366076C16.1003 0.597836 16.2317 0.911352 16.2346 1.2391C16.2374 1.56684 16.1114 1.8826 15.8837 2.11835L10.5175 7.4846L15.8837 12.8508C16.1114 13.0866 16.2374 13.4024 16.2346 13.7301C16.2317 14.0578 16.1003 14.3714 15.8685 14.6031C15.6368 14.8349 15.3232 14.9663 14.9955 14.9692C14.6678 14.972 14.352 14.846 14.1162 14.6183L7.86625 8.36835C7.63181 8.13398 7.50007 7.81609 7.5 7.4846Z" fill="#E8E8E8"/>
</svg>
