<svg width="19" height="19" viewBox="0 0 19 19" fill="none" xmlns="http://www.w3.org/2000/svg">
<g clip-path="url(#clip0_708_592)">
<path d="M18.3929 9.59272C18.3929 8.82114 18.3303 8.25809 18.1948 7.67419H9.38416V11.1567H14.5558C14.4516 12.0222 13.8886 13.3255 12.6373 14.2013L12.6198 14.3179L15.4055 16.476L15.5985 16.4953C17.3711 14.8583 18.3929 12.4497 18.3929 9.59272Z" fill="#4285F4"/>
<path d="M9.38418 18.7683C11.9179 18.7683 14.0449 17.9341 15.5986 16.4952L12.6373 14.2013C11.8449 14.7539 10.7813 15.1397 9.38418 15.1397C6.90261 15.1397 4.7964 13.5027 4.0456 11.2401L3.93555 11.2495L1.03886 13.4912L1.00098 13.5965C2.54413 16.662 5.7139 18.7683 9.38418 18.7683Z" fill="#34A853"/>
<path d="M4.04558 11.2401C3.84747 10.6562 3.73282 10.0305 3.73282 9.38411C3.73282 8.7376 3.84747 8.11202 4.03515 7.52812L4.02991 7.40377L1.09692 5.12598L1.00095 5.17162C0.364944 6.44371 0 7.87222 0 9.38411C0 10.896 0.364944 12.3244 1.00095 13.5965L4.04558 11.2401Z" fill="#FBBC05"/>
<path d="M9.38418 3.62852C11.1463 3.62852 12.3349 4.38967 13.0127 5.02576L15.6611 2.43988C14.0346 0.927993 11.9179 0 9.38418 0C5.7139 0 2.54413 2.10621 1.00098 5.17168L4.03518 7.52817C4.7964 5.26555 6.90261 3.62852 9.38418 3.62852Z" fill="#EB4335"/>
</g>
<defs>
<clipPath id="clip0_708_592">
<rect width="18.4017" height="18.833" fill="white"/>
</clipPath>
</defs>
</svg>
