<svg width="23" height="23" viewBox="0 0 23 23" fill="none" xmlns="http://www.w3.org/2000/svg">
<path d="M11.3165 5.79145e-06C11.1027 0.000811234 10.8978 0.0861171 10.7466 0.237328C10.5954 0.388539 10.5101 0.593393 10.5093 0.807236V3.2381C10.5101 3.45194 10.5954 3.6568 10.7466 3.80801C10.8978 3.95922 11.1027 4.04452 11.3165 4.04533C11.4229 4.04573 11.5284 4.02517 11.6268 3.98482C11.7253 3.94447 11.8148 3.88512 11.8904 3.81017C11.9659 3.73521 12.0259 3.64611 12.067 3.54795C12.1081 3.4498 12.1295 3.34451 12.1299 3.2381V0.807236C12.1295 0.700827 12.1081 0.595539 12.067 0.497384C12.0259 0.399229 11.9659 0.310128 11.8904 0.23517C11.8148 0.160211 11.7253 0.100863 11.6268 0.0605136C11.5284 0.0201641 11.4229 -0.000396509 11.3165 5.79145e-06Z" fill="#202020"/>
<path d="M11.3165 18.6216C11.1027 18.6224 10.8978 18.7077 10.7466 18.8589C10.5954 19.0101 10.5101 19.215 10.5093 19.4288V21.8597C10.5101 22.0735 10.5954 22.2784 10.7466 22.4296C10.8978 22.5808 11.1027 22.6661 11.3165 22.6669C11.4229 22.6673 11.5284 22.6468 11.6268 22.6064C11.7253 22.5661 11.8148 22.5067 11.8904 22.4317C11.9659 22.3568 12.0259 22.2677 12.067 22.1695C12.1081 22.0714 12.1295 21.9661 12.1299 21.8597V19.4288C12.1295 19.3224 12.1081 19.2171 12.067 19.119C12.0259 19.0208 11.9659 18.9317 11.8904 18.8568C11.8148 18.7818 11.7253 18.7224 11.6268 18.6821C11.5284 18.6417 11.4229 18.6212 11.3165 18.6216Z" fill="#202020"/>
<path d="M11.3164 5.65674C8.19755 5.65673 5.65967 8.20379 5.65967 11.3135C5.65967 14.4323 8.20672 16.9702 11.3164 16.9702C12.5028 16.9701 13.6586 16.5972 14.6187 15.9061C15.0682 15.582 15.0682 14.9124 14.6187 14.5913C13.5607 13.8299 12.9309 12.6099 12.9309 11.3196C12.9309 10.017 13.5577 8.79393 14.6187 8.04785C15.0682 7.72374 15.0682 7.0541 14.6187 6.73305C13.6555 6.04201 12.4997 5.66897 11.3164 5.66897V5.65674ZM11.3164 7.27426C11.8454 7.2743 12.2796 7.34183 12.7657 7.53997C11.9065 8.55206 11.3164 9.96166 11.3164 11.3315C11.3165 12.6891 11.9035 14.0987 12.7657 15.123C12.2826 15.3212 11.8454 15.3884 11.3164 15.3888C9.07205 15.3888 7.28024 13.5878 7.28024 11.3526C7.28024 9.10826 9.08122 7.31645 11.3164 7.31645V7.27426Z" fill="#202020"/>
<path d="M17.0037 5.65674C13.8848 5.65674 11.3469 8.20379 11.3469 11.3135C11.3469 14.4231 13.894 16.9702 17.0037 16.9702C20.1133 16.9702 22.6604 14.4231 22.6604 11.3135C22.6604 8.20379 20.1133 5.65674 17.0037 5.65674Z" fill="#202020"/>
<path d="M0.807236 10.5181C0.593393 10.5189 0.388539 10.6042 0.237328 10.7554C0.0861171 10.9066 0.000811234 11.1115 5.79145e-06 11.3253C-0.000396509 11.4317 0.0201641 11.5372 0.0605136 11.6356C0.100863 11.7341 0.160211 11.8236 0.23517 11.8992C0.310128 11.9747 0.399229 12.0347 0.497384 12.0758C0.595539 12.1169 0.700827 12.1382 0.807236 12.1386H3.2381C3.34451 12.1382 3.4498 12.1169 3.54795 12.0758C3.64611 12.0347 3.73521 11.9747 3.81017 11.8992C3.88512 11.8236 3.94447 11.7341 3.98482 11.6356C4.02517 11.5372 4.04573 11.4317 4.04533 11.3253C4.04452 11.1115 3.95922 10.9066 3.80801 10.7554C3.6568 10.6042 3.45194 10.5189 3.2381 10.5181H0.807236Z" fill="#202020"/>
<path d="M3.8557 3.08786C3.64925 3.09255 3.45238 3.17589 3.30531 3.32085C3.22996 3.39611 3.17019 3.48548 3.1294 3.58385C3.08862 3.68223 3.06763 3.78768 3.06763 3.89417C3.06763 4.00067 3.08862 4.10611 3.1294 4.20449C3.17019 4.30286 3.22996 4.39223 3.30531 4.46749L5.02679 6.18285C5.17853 6.33317 5.38347 6.41749 5.59705 6.41749C5.81063 6.41749 6.01558 6.33317 6.16731 6.18285C6.31762 6.03112 6.40195 5.82617 6.40195 5.61259C6.40195 5.39901 6.31762 5.19407 6.16731 5.04233L4.45195 3.32085C4.37359 3.24356 4.28032 3.18304 4.17781 3.14298C4.07529 3.10292 3.96569 3.08417 3.8557 3.08786Z" fill="#202020"/>
<path d="M5.56789 16.2356C5.36272 16.2435 5.16819 16.329 5.02362 16.4747L3.30214 18.1901C3.22679 18.2654 3.16701 18.3547 3.12623 18.4531C3.08545 18.5515 3.06445 18.6569 3.06445 18.7634C3.06445 18.8699 3.08545 18.9754 3.12623 19.0737C3.16701 19.1721 3.22679 19.2615 3.30214 19.3367C3.37739 19.4121 3.46676 19.4719 3.56514 19.5126C3.66351 19.5534 3.76896 19.5744 3.87545 19.5744C3.98195 19.5744 4.0874 19.5534 4.18577 19.5126C4.28415 19.4719 4.37352 19.4121 4.44877 19.3367L6.16414 17.6153C6.31445 17.4635 6.39878 17.2586 6.39878 17.045C6.39878 16.8314 6.31445 16.6265 6.16414 16.4747C6.0863 16.3963 5.99326 16.3347 5.89072 16.2936C5.78818 16.2525 5.67832 16.2327 5.56789 16.2356Z" fill="#202020"/>
</svg>
