<svg width="22" height="22" viewBox="0 0 22 22" fill="none" xmlns="http://www.w3.org/2000/svg">
<path fill-rule="evenodd" clip-rule="evenodd" d="M21.3332 8.6823C21.3332 7.17507 20.1118 5.95361 18.6045 5.95361H8.68205C7.17483 5.95361 5.95337 7.17507 5.95337 8.6823V18.6048C5.95337 20.112 7.17483 21.3335 8.68205 21.3335H18.6045C20.1118 21.3335 21.3332 20.112 21.3332 18.6048V8.6823ZM19.8448 8.6823V18.6048C19.8448 19.2894 19.2892 19.8451 18.6045 19.8451H8.68205C7.9974 19.8451 7.44174 19.2894 7.44174 18.6048V8.6823C7.44174 7.99764 7.9974 7.44199 8.68205 7.44199H18.6045C19.2892 7.44199 19.8448 7.99764 19.8448 8.6823Z" fill="#202020"/>
<path fill-rule="evenodd" clip-rule="evenodd" d="M4.96124 15.3798V8.68217C4.96124 6.62722 6.62722 4.96124 8.68217 4.96124H15.3798V2.72868C15.3798 1.22146 14.1584 0 12.6512 0H2.72868C1.22146 0 0 1.22146 0 2.72868V12.6512C0 14.1584 1.22146 15.3798 2.72868 15.3798H4.96124Z" fill="#202020"/>
</svg>
