<svg width="22" height="22" viewBox="0 0 22 22" fill="none" xmlns="http://www.w3.org/2000/svg">
<path d="M20.8058 4.04586L11.5065 0.326446C11.1619 0.187409 10.7763 0.187409 10.4318 0.326446L1.12903 4.04586C0.821399 4.17315 0.567505 4.40353 0.411004 4.69739L0.408653 4.69974V4.70243C0.289766 4.91166 0.225621 5.14742 0.222262 5.38821V16.3893C0.218232 16.9814 0.578588 17.515 1.12903 17.7326L10.4318 21.4507C10.7763 21.5904 11.1619 21.5904 11.5065 21.4507L20.8058 17.7313C21.3539 17.5096 21.7133 16.979 21.716 16.3879V5.38821C21.717 4.79646 21.3559 4.26416 20.8058 4.04586ZM10.737 1.0935C10.8109 1.06395 10.8895 1.0485 10.9691 1.04884C11.048 1.0485 11.1259 1.06395 11.1992 1.0935L20.3004 4.73333L11.1992 8.28415C11.0494 8.34393 10.8821 8.34326 10.733 8.28214L1.63614 4.73333L10.737 1.0935ZM1.43733 16.9646C1.20325 16.8692 1.05044 16.6418 1.04977 16.3893V5.39224L10.4318 9.05121C10.4727 9.06766 10.5157 9.06296 10.557 9.07539V20.6111L1.43733 16.9646ZM20.4989 16.9646L11.3829 20.6105V9.07539C11.4218 9.06363 11.4641 9.068 11.5017 9.05255L20.8884 5.39191V16.3893C20.8874 16.6422 20.7333 16.8695 20.4989 16.9646Z" fill="#202020" stroke="#202020" stroke-width="0.444444"/>
</svg>
