<svg width="22" height="22" viewBox="0 0 22 22" fill="none" xmlns="http://www.w3.org/2000/svg">
<path d="M15.6787 1.25C15.3335 1.25 15.0537 0.970167 15.0537 0.625C15.0539 0.279982 15.3337 0 15.6787 0H16.6924C17.0374 0 17.3172 0.279982 17.3174 0.625C17.3174 0.970167 17.0375 1.25 16.6924 1.25H15.6787ZM11.999 1.25C11.6541 1.24977 11.374 0.970022 11.374 0.625C11.3742 0.280127 11.6542 0.000234355 11.999 0H13.0137C13.3587 9.34371e-05 13.6385 0.28004 13.6387 0.625C13.6387 0.970109 13.3588 1.24991 13.0137 1.25H11.999ZM8.32031 1.25C7.97514 1.24996 7.69531 0.970143 7.69531 0.625C7.69549 0.280006 7.97529 3.80819e-05 8.32031 0H9.33398C9.67904 0 9.95881 0.279982 9.95898 0.625C9.95898 0.970167 9.67915 1.25 9.33398 1.25H8.32031ZM4.6416 1.25C4.29643 1.25 4.0166 0.970167 4.0166 0.625C4.01678 0.279982 4.29654 0 4.6416 0H5.65527C6.00033 5.25081e-07 6.2801 0.279983 6.28027 0.625C6.28027 0.970166 6.00044 1.25 5.65527 1.25H4.6416ZM20.709 2.7666C20.3638 2.7666 20.084 2.48675 20.084 2.1416V1.25098H19.1924C18.8475 1.25081 18.5676 0.970867 18.5674 0.625977C18.5674 0.280916 18.8474 0.00114795 19.1924 0.000976562H20.709C21.054 0.00115289 21.334 0.280919 21.334 0.625977V2.1416C21.334 2.48664 21.054 2.76643 20.709 2.7666ZM0.625 2.7666C0.279982 2.76644 2.05812e-05 2.48665 0 2.1416V0.625977C0 0.280909 0.27997 0.0011368 0.625 0.000976562H2.1416C2.48661 0.0011642 2.7666 0.280926 2.7666 0.625977C2.7664 0.970857 2.48649 1.25079 2.1416 1.25098H1.25V2.1416C1.24998 2.48675 0.970154 2.7666 0.625 2.7666ZM20.709 6.28027C20.3638 6.28027 20.084 6.00044 20.084 5.65527V4.6416C20.084 4.29643 20.3638 4.0166 20.709 4.0166C21.054 4.01678 21.334 4.29654 21.334 4.6416V5.65527C21.334 6.00033 21.054 6.2801 20.709 6.28027ZM0.625 6.28027C0.279982 6.2801 0 6.00033 0 5.65527V4.6416C0 4.29654 0.279982 4.01678 0.625 4.0166C0.970167 4.0166 1.25 4.29643 1.25 4.6416V5.65527C1.25 6.00044 0.970167 6.28027 0.625 6.28027ZM0.625 21.334C0.280251 21.3338 0.000176018 21.0537 0 20.709V11.834C0 11.4891 0.280143 11.2092 0.625 11.209L9.24121 11.209L14.4033 6.04687H13.1045C12.7598 6.04666 12.4797 5.7666 12.4795 5.42187C12.4795 5.07659 12.7597 4.79709 13.1045 4.79688H15.9121C16.2637 4.79688 16.5371 5.08587 16.5371 5.42188L16.5371 8.22949C16.5369 8.5743 16.2574 8.85449 15.9121 8.85449C15.5674 8.85434 15.2873 8.57421 15.2871 8.22949V6.93066L10.125 12.0928L10.125 20.709C10.1248 21.0538 9.84489 21.334 9.5 21.334H0.625ZM20.709 9.95996C20.3639 9.95996 20.0842 9.67995 20.084 9.33496L20.084 8.32031C20.0841 7.97525 20.3639 7.69531 20.709 7.69531C21.0539 7.69549 21.3339 7.97536 21.334 8.32031V9.33496C21.3338 9.67984 21.0539 9.95978 20.709 9.95996ZM0.625 9.95996C0.28011 9.95979 0.000206956 9.67984 0 9.33496V8.32031C0.000120457 7.97536 0.280057 7.69549 0.625 7.69531C0.970092 7.69531 1.24988 7.97525 1.25 8.32031V9.33496C1.24979 9.67995 0.970039 9.95996 0.625 9.95996ZM20.709 13.6387C20.3638 13.6387 20.084 13.3588 20.084 13.0137V12C20.084 11.6548 20.3638 11.375 20.709 11.375C21.054 11.3752 21.334 11.6549 21.334 12V13.0137C21.334 13.3587 21.054 13.6385 20.709 13.6387ZM20.709 17.3174C20.3638 17.3174 20.084 17.0375 20.084 16.6924V15.6787C20.084 15.3335 20.3638 15.0537 20.709 15.0537C21.054 15.0539 21.334 15.3337 21.334 15.6787V16.6924C21.334 17.0374 21.054 17.3172 20.709 17.3174ZM19.1924 21.334C18.8474 21.3339 18.5676 21.0539 18.5674 20.709C18.5674 20.3639 18.8473 20.0841 19.1924 20.084H20.084V19.1924C20.0842 18.8474 20.3639 18.5674 20.709 18.5674C21.0539 18.5676 21.3338 18.8475 21.334 19.1924V20.709C21.3338 21.0539 21.0539 21.3338 20.709 21.334H19.1924ZM15.6787 21.334C15.3337 21.334 15.0539 21.054 15.0537 20.709C15.0537 20.3638 15.3335 20.084 15.6787 20.084H16.6924C17.0375 20.084 17.3174 20.3638 17.3174 20.709C17.3172 21.054 17.0374 21.334 16.6924 21.334H15.6787ZM11.999 21.334C11.6542 21.3338 11.3742 21.0539 11.374 20.709C11.374 20.364 11.6541 20.0842 11.999 20.084H13.0137C13.3588 20.0841 13.6387 20.3639 13.6387 20.709C13.6385 21.0539 13.3587 21.3339 13.0137 21.334H11.999Z" fill="#202020"/>
</svg>
