<svg width="24" height="24" viewBox="0 0 24 24" fill="none" xmlns="http://www.w3.org/2000/svg">
<path d="M18.4441 19.1939C18.252 19.1939 18.0601 19.1208 17.914 18.9738L14.025 15.0848C13.732 14.7919 13.732 14.3169 14.025 14.0239C14.318 13.731 14.7931 13.731 15.0861 14.0239L18.9751 17.9129C19.268 18.2059 19.268 18.6808 18.9751 18.9738C18.828 19.1208 18.636 19.1939 18.4441 19.1939Z" fill="#202020"/>
<path d="M14.556 19.1939C14.3641 19.1939 14.172 19.1208 14.0261 18.9738C13.7329 18.6808 13.7329 18.2059 14.0261 17.9129L17.9151 14.0239C18.208 13.731 18.683 13.731 18.976 14.0239C19.2689 14.3169 19.2689 14.7919 18.976 15.0848L15.087 18.9738C14.939 19.1208 14.7481 19.1939 14.556 19.1939Z" fill="#202020"/>
<path d="M5.44592 13.5C4.92206 13.5 4.44507 13.171 4.25903 12.6821L0.0860596 1.72705C0.0349732 1.61993 0 1.45203 0 1.27094C0 0.570007 0.570923 0 1.27203 0C1.448 0 1.61407 0.0340576 1.76404 0.101074L12.683 4.25903C13.171 4.44397 13.5 4.92096 13.5 5.44501C13.5 5.99597 13.1481 6.48193 12.624 6.65405L8.12695 8.12695L6.65405 12.6229C6.48395 13.1461 5.99799 13.5 5.44592 13.5ZM1.66699 1.66809L5.42999 11.5421L6.81995 7.29895C6.89502 7.07208 7.07208 6.89392 7.29895 6.81995L11.5421 5.42999L1.66699 1.66809ZM1.19202 1.487C1.19604 1.48792 1.20007 1.48993 1.20502 1.49103L1.19202 1.487ZM1.46906 1.14697L1.487 1.19403C1.48206 1.18103 1.47601 1.164 1.46906 1.14697Z" fill="#202020"/>
<path d="M16.5 24C12.364 24 9 20.636 9 16.5C9 12.364 12.364 9 16.5 9C20.636 9 24 12.364 24 16.5C24 20.636 20.636 24 16.5 24ZM16.5 10.5C13.1909 10.5 10.5 13.1909 10.5 16.5C10.5 19.8091 13.1909 22.5 16.5 22.5C19.8091 22.5 22.5 19.8091 22.5 16.5C22.5 13.1909 19.8091 10.5 16.5 10.5Z" fill="#202020"/>
</svg>
