<svg width="22" height="21" viewBox="0 0 22 21" fill="none" xmlns="http://www.w3.org/2000/svg">
<path d="M11.0562 20.1499C10.3342 20.1499 9.6073 20.0713 8.88524 19.9122C7.52943 19.6136 6.28099 19.0541 5.17 18.248L0.836887 20.0359C0.640259 20.1171 0.413944 20.0642 0.273609 19.9044C0.133275 19.7447 0.110002 19.5134 0.215775 19.3289L2.49718 15.3484C1.14784 13.1378 0.712664 10.5396 1.27271 7.99769C2.45879 2.61405 7.80369 -0.80082 13.1872 0.385161C15.7953 0.959727 18.0234 2.51544 19.4612 4.76577C20.899 7.01609 21.3744 9.6917 20.7997 12.2997C20.2252 14.9077 18.6695 17.1359 16.4191 18.5737C14.792 19.6134 12.9419 20.1499 11.0562 20.1499ZM5.24141 17.1832C5.34952 17.1832 5.45654 17.2184 5.54496 17.2865C6.59637 18.0964 7.7922 18.653 9.09927 18.941C11.448 19.4584 13.8573 19.0303 15.8838 17.7356C17.9102 16.4409 19.3111 14.4344 19.8285 12.0858C20.346 9.73715 19.9179 7.32769 18.6232 5.3013C17.3284 3.2749 15.3219 1.87394 12.9733 1.35646C10.6247 0.839035 8.21524 1.2672 6.18884 2.56189C4.1624 3.85663 2.76149 5.86313 2.24401 8.21172C1.71982 10.591 2.16375 13.0247 3.49399 15.0646C3.59599 15.2211 3.60176 15.4215 3.50886 15.5836L1.80177 18.562L5.0518 17.2209C5.11296 17.1956 5.17741 17.1832 5.24141 17.1832Z" fill="#202020" stroke="#202020" stroke-width="0.3"/>
<path d="M6.46114 11.183C7.10321 11.183 7.6237 10.6625 7.6237 10.0205C7.6237 9.37841 7.10321 8.85791 6.46114 8.85791C5.81908 8.85791 5.29858 9.37841 5.29858 10.0205C5.29858 10.6625 5.81908 11.183 6.46114 11.183Z" fill="#202020" stroke="#202020" stroke-width="0.2"/>
<path d="M11.0363 11.183C11.6784 11.183 12.1989 10.6625 12.1989 10.0205C12.1989 9.37841 11.6784 8.85791 11.0363 8.85791C10.3943 8.85791 9.87378 9.37841 9.87378 10.0205C9.87378 10.6625 10.3943 11.183 11.0363 11.183Z" fill="#202020" stroke="#202020" stroke-width="0.2"/>
<path d="M15.6115 11.183C16.2536 11.183 16.7741 10.6625 16.7741 10.0205C16.7741 9.37841 16.2536 8.85791 15.6115 8.85791C14.9695 8.85791 14.449 9.37841 14.449 10.0205C14.449 10.6625 14.9695 11.183 15.6115 11.183Z" fill="#202020" stroke="#202020" stroke-width="0.2"/>
</svg>
