<svg width="22" height="22" viewBox="0 0 22 22" fill="none" xmlns="http://www.w3.org/2000/svg">
<path d="M3.33333 10.9583C3.33333 11.7165 3.95017 12.3333 4.70833 12.3333C5.4665 12.3333 6.08333 11.7165 6.08333 10.9583C6.08333 10.2002 5.4665 9.58333 4.70833 9.58333C3.95017 9.58333 3.33333 10.2002 3.33333 10.9583ZM12.1667 5.08333C12.1667 4.21029 11.4564 3.5 10.5833 3.5C9.71029 3.5 9 4.21029 9 5.08333C9 5.95638 9.71029 6.66667 10.5833 6.66667C11.4564 6.66667 12.1667 5.95638 12.1667 5.08333ZM7.48267 7.89921C8.05117 7.33062 8.05117 6.40546 7.48267 5.83692L7.48254 5.83679C6.91404 5.26837 5.98883 5.26825 5.42012 5.83692C4.85162 6.4055 4.85163 7.33067 5.42025 7.89933C5.7045 8.18354 6.07792 8.32567 6.45137 8.32567C6.82479 8.32567 7.19833 8.1835 7.48267 7.89921ZM20.3189 6.11354C20.983 7.51908 21.3333 9.06596 21.3333 10.6667C21.3333 11.9073 20.324 12.9167 19.0833 12.9167H15.0833C13.9805 12.9167 13.0833 13.8138 13.0833 14.9167C13.0833 15.5113 13.231 15.778 13.4353 16.1472C13.6868 16.6018 14 17.1675 14 18.2083C14 18.6548 13.9051 19.5151 13.2692 20.2598C12.851 20.7495 12.0601 21.3333 10.6667 21.3333C7.8175 21.3333 5.13888 20.2238 3.12417 18.2092C1.10954 16.1945 0 13.5158 0 10.6667C0 7.8175 1.10954 5.13888 3.12417 3.12417C5.13888 1.10954 7.8175 0 10.6667 0C12.3446 0 13.9632 0.385208 15.422 1.11304C15.1032 1.59842 14.915 2.14525 14.8562 2.70333C13.6041 2.04192 12.1785 1.66667 10.6667 1.66667C5.70404 1.66667 1.66667 5.70404 1.66667 10.6667C1.66667 15.6293 5.70404 19.6667 10.6667 19.6667C12.171 19.6667 12.3333 18.6468 12.3333 18.2083C12.3333 17.598 12.1839 17.328 11.977 16.9543C11.7274 16.5032 11.4167 15.9418 11.4167 14.9167C11.4167 12.8949 13.0615 11.25 15.0833 11.25H19.0833C19.405 11.25 19.6667 10.9883 19.6667 10.6667C19.6667 9.22504 19.3254 7.86179 18.7203 6.65258C19.2938 6.60346 19.8388 6.4185 20.3189 6.11354ZM16.5675 3.58733C16.3939 2.94583 16.5575 2.23158 17.0593 1.72783C18.103 0.680292 20.2231 1.11442 21.3333 0C21.3333 2.54088 20.5058 3.69004 19.76 4.43858C19.1933 5.00742 18.3592 5.1435 17.664 4.84788L6.63096 15.881L5.45242 14.7024L16.5675 3.58733Z" fill="#202020"/>
</svg>
