<svg width="25" height="25" viewBox="0 0 25 25" fill="none" xmlns="http://www.w3.org/2000/svg">
<path d="M23.6824 9.74291C20.1579 7.99466 18.1025 7.05754 14.2152 6.4544C14.4272 3.77464 14.388 3.87743 14.526 1.74562C14.5578 1.33664 14.2731 0.970674 13.8689 0.90089C8.22136 -0.0954212 6.51111 -0.10542 0.808418 0.90089C0.406063 0.9702 0.122061 1.33364 0.152076 1.74082C0.752023 10.97 0.455649 6.12643 0.55444 7.78028C0.652032 9.40973 0.752423 11.094 1.40996 12.6698C2.1447 14.4213 3.65296 15.9732 5.89677 17.2758C6.88548 17.8442 7.57662 17.8446 8.40974 17.4674C8.63092 19.652 9.90161 21.6059 11.4179 23.2065C12.0801 24.0304 13.1853 24.3547 14.1876 24.0192C16.7074 23.4005 18.5904 22.3394 19.7871 20.8631C20.8618 19.5368 21.4334 17.9486 21.9869 16.4127C22.5469 14.8529 21.5434 17.6674 24.0728 10.7396C24.2192 10.3564 24.0501 9.92469 23.6824 9.74291ZM6.29713 16.5823C4.23891 15.3856 2.80464 13.9245 2.1495 12.3583C1.36437 10.4776 1.43596 8.33383 1.25478 6.30281C1.11319 4.69975 1.0456 3.0943 0.950005 1.68842C6.52791 0.705308 8.34975 0.738905 13.7273 1.68882C13.6273 3.23348 13.5585 4.78775 13.4237 6.30641C13.4189 6.3668 13.6317 6.34361 11.5363 6.10643C11.8582 6.15823 12.181 6.01905 12.3643 5.74943C12.5476 5.4798 12.5583 5.12844 12.3918 4.84814C11.1151 2.82152 9.12688 2.82432 7.85259 4.86534C7.69579 5.1291 7.69531 5.45738 7.85133 5.7216C8.00735 5.98583 8.29504 6.14394 8.60173 6.13403C9.50781 5.99019 10.4295 5.97309 11.3403 6.08323L11.1535 6.06163C10.7484 6.01537 10.3741 6.28351 10.2876 6.68198C9.9888 8.00906 9.67323 9.29974 9.35966 10.8104C7.69461 9.56452 5.04004 9.87049 3.70896 12.9514C3.57531 13.2606 3.64968 13.6204 3.89497 13.8513C4.14027 14.0822 4.50391 14.1346 4.80446 13.9825C6.6547 13.0458 7.56902 13.099 8.76411 13.5182C8.52439 14.5252 8.39259 15.5549 8.37095 16.5899C7.75274 17.0417 6.91254 17.0392 6.29713 16.5835V16.5823ZM8.62012 5.3341C8.58421 5.34107 8.54814 5.32279 8.53253 5.2897C9.47765 3.77583 10.7407 3.72984 11.719 5.2801C11.6991 5.43929 10.7531 4.98613 8.62012 5.3341ZM8.9401 12.7334C7.60901 12.2843 6.48631 12.2379 4.44489 13.2694C4.90325 12.2031 5.77758 10.9336 7.32784 10.9336C8.01805 10.9339 8.67985 11.2085 9.16768 11.6967C9.07008 12.1443 9.04769 12.2535 8.9385 12.7334H8.9401ZM21.237 16.1427C20.7067 17.6162 20.1571 19.1397 19.1692 20.3604C18.0989 21.6802 16.311 22.6754 14.0008 23.2429C13.277 23.5078 12.465 23.2698 11.9986 22.6562C10.3616 20.9275 9.39885 19.1221 9.21047 17.4342C9.03849 15.872 9.40165 14.2937 9.75282 12.7678C10.1452 11.0584 10.026 11.3768 10.7367 8.31143C10.8487 7.82708 10.9607 7.34312 11.0679 6.85796C16.763 7.4939 18.4249 8.02706 23.3264 10.4588C20.945 16.9763 21.8298 14.4933 21.2354 16.1415L21.237 16.1427Z" fill="#202020" stroke="#202020" stroke-width="0.3"/>
<path d="M17.1765 17.6356C16.3095 17.83 15.411 17.836 14.5415 17.6532C13.711 17.3372 12.9583 16.8461 12.3345 16.2134C12.089 15.9837 11.726 15.932 11.4262 16.0841C11.1263 16.2362 10.9536 16.5595 10.9938 16.8933C11.321 19.5455 12.9204 20.7566 14.6199 20.7566C15.7874 20.7566 16.9397 20.1306 17.9356 18.9331C18.1502 18.6743 18.18 18.3089 18.0102 18.0187C17.8404 17.7285 17.5073 17.5754 17.1765 17.6356ZM13.8968 19.851C12.4125 19.4143 11.9313 17.9488 11.7877 16.7953C12.5022 17.515 13.3656 18.0697 14.3171 18.4204C15.3068 18.6393 16.3324 18.6393 17.3221 18.4204C16.5773 19.3147 15.3806 20.285 13.8956 19.853L13.8968 19.851Z" fill="#202020" stroke="#202020" stroke-width="0.3"/>
<path d="M11.6934 12.5207C12.6092 12.6325 13.5015 12.889 14.3368 13.2806C14.6318 13.437 14.9913 13.4047 15.2536 13.1982C15.516 12.9916 15.6318 12.6498 15.5491 12.3263C14.898 10.0249 12.9893 9.46219 11.1895 11.0628C10.9463 11.2907 10.8599 11.6402 10.9687 11.9552C11.0776 12.2701 11.3615 12.4917 11.6934 12.5207ZM14.782 12.5491C14.702 12.6887 13.9296 11.9972 11.793 11.7268C11.7558 11.7224 11.7362 11.706 11.7214 11.6592C13.0629 10.4673 14.2844 10.7945 14.782 12.5491Z" fill="#202020" stroke="#202020" stroke-width="0.3"/>
<path d="M17.0658 14.0987C17.9817 14.2104 18.8741 14.4669 19.7095 14.8587C19.8326 14.917 19.9669 14.9478 20.1031 14.9491C20.3645 14.956 20.6138 14.8387 20.7752 14.6329C20.9365 14.427 20.9909 14.157 20.9218 13.9048C20.2695 11.6042 18.3641 11.0394 16.5622 12.6413C16.319 12.869 16.2324 13.2184 16.3412 13.5333C16.45 13.8483 16.7339 14.0697 17.0658 14.0987ZM20.1287 14.1447C20.105 14.1521 20.0793 14.1495 20.0575 14.1375C19.1473 13.7004 18.1702 13.419 17.167 13.3052C17.1298 13.3004 17.1102 13.284 17.0954 13.2376C18.5232 11.9669 19.7431 12.4985 20.1287 14.1447Z" fill="#202020" stroke="#202020" stroke-width="0.3"/>
<path d="M5.89918 6.10434C6.22632 6.17117 6.56208 6.03876 6.75553 5.76662C6.94899 5.49449 6.96372 5.13386 6.7931 4.84685C5.51642 2.82023 3.52819 2.82303 2.25391 4.86405C2.09655 5.12775 2.09565 5.45631 2.25155 5.72088C2.40746 5.98544 2.69532 6.14383 3.00224 6.13394C3.96097 5.97914 4.9375 5.96916 5.89918 6.10434ZM3.02064 5.33401C2.98473 5.34098 2.94866 5.3227 2.93305 5.28961C3.87816 3.77575 5.14125 3.72975 6.11956 5.28001C6.09957 5.4392 5.15365 4.98604 3.02064 5.33401Z" fill="#202020" stroke="#202020" stroke-width="0.3"/>
</svg>
