<svg width="22" height="22" viewBox="0 0 22 22" fill="none" xmlns="http://www.w3.org/2000/svg">
<path d="M11.3153 2.28571V0.761905C11.3153 0.559835 11.235 0.366042 11.0921 0.223157C10.9493 0.0802719 10.7555 0 10.5534 0C10.3513 0 10.1575 0.0802719 10.0146 0.223157C9.87176 0.366042 9.79148 0.559835 9.79148 0.761905V2.28571C7.38237 2.46911 5.1057 3.46038 3.3302 5.09899C1.55469 6.7376 0.384319 8.92759 0.00862766 11.3143C-0.00794665 11.4235 -0.00058163 11.535 0.0302125 11.641C0.0610066 11.7471 0.114494 11.8452 0.186967 11.9286C0.259441 12.0119 0.349169 12.0785 0.449934 12.1237C0.550699 12.169 0.660091 12.1917 0.770532 12.1905H6.05815C6.24376 13.25 6.79701 14.2101 7.62061 14.9019C8.4442 15.5938 9.48538 15.9731 10.561 15.9731C11.6366 15.9731 12.6778 15.5938 13.5014 14.9019C14.325 14.2101 14.8783 13.25 15.0639 12.1905H20.3515C20.4619 12.1917 20.5713 12.169 20.6721 12.1237C20.7728 12.0785 20.8626 12.0119 20.935 11.9286C21.0075 11.8452 21.061 11.7471 21.0918 11.641C21.1226 11.535 21.13 11.4235 21.1134 11.3143C20.7371 8.92521 19.5645 6.7334 17.7859 5.09451C16.0073 3.45562 13.7271 2.46582 11.3153 2.28571ZM1.70006 10.6667C2.20624 8.70339 3.35064 6.96405 4.95329 5.7222C6.55594 4.48034 8.52591 3.80642 10.5534 3.80642C12.5809 3.80642 14.5508 4.48034 16.1535 5.7222C17.7561 6.96405 18.9005 8.70339 19.4067 10.6667H1.70006ZM10.5534 21.3333C10.3513 21.3333 10.1575 21.2531 10.0146 21.1102C9.87176 20.9673 9.79148 20.7735 9.79148 20.5714V18.2857C9.79148 18.0836 9.87176 17.8899 10.0146 17.747C10.1575 17.6041 10.3513 17.5238 10.5534 17.5238C10.7555 17.5238 10.9493 17.6041 11.0921 17.747C11.235 17.8899 11.3153 18.0836 11.3153 18.2857V20.5714C11.3153 20.7735 11.235 20.9673 11.0921 21.1102C10.9493 21.2531 10.7555 21.3333 10.5534 21.3333ZM3.65053 19.4743C3.55026 19.4749 3.45086 19.4556 3.35803 19.4177C3.2652 19.3798 3.18077 19.3239 3.10958 19.2533C3.03817 19.1825 2.98149 19.0982 2.94281 19.0054C2.90412 18.9125 2.88421 18.813 2.88421 18.7124C2.88421 18.6118 2.90412 18.5122 2.94281 18.4194C2.98149 18.3265 3.03817 18.2423 3.10958 18.1714L4.72482 16.5562C4.79586 16.4852 4.88019 16.4288 4.97301 16.3904C5.06583 16.3519 5.16531 16.3321 5.26577 16.3321C5.36623 16.3321 5.46571 16.3519 5.55853 16.3904C5.65135 16.4288 5.73568 16.4852 5.80672 16.5562C5.87776 16.6272 5.93411 16.7116 5.97256 16.8044C6.011 16.8972 6.03079 16.9967 6.03079 17.0971C6.03079 17.1976 6.011 17.2971 5.97256 17.3899C5.93411 17.4827 5.87776 17.5671 5.80672 17.6381L4.19148 19.2533C4.12029 19.3239 4.03586 19.3798 3.94303 19.4177C3.8502 19.4556 3.7508 19.4749 3.65053 19.4743ZM17.4562 19.4743C17.356 19.4749 17.2566 19.4556 17.1637 19.4177C17.0709 19.3798 16.9865 19.3239 16.9153 19.2533L15.3001 17.6381C15.1566 17.4946 15.076 17.3 15.076 17.0971C15.076 16.8942 15.1566 16.6997 15.3001 16.5562C15.4435 16.4127 15.6381 16.3321 15.841 16.3321C16.0439 16.3321 16.2385 16.4127 16.382 16.5562L17.9972 18.1714C18.0686 18.2423 18.1253 18.3265 18.164 18.4194C18.2027 18.5122 18.2226 18.6118 18.2226 18.7124C18.2226 18.813 18.2027 18.9125 18.164 19.0054C18.1253 19.0982 18.0686 19.1825 17.9972 19.2533C17.926 19.3239 17.8416 19.3798 17.7487 19.4177C17.6559 19.4556 17.5565 19.4749 17.4562 19.4743Z" fill="#202020"/>
</svg>
