<svg width="25" height="21" viewBox="0 0 25 21" fill="none" xmlns="http://www.w3.org/2000/svg">
<path d="M24.375 1.67526C24.5433 1.77246 24.6867 1.90758 24.7937 2.06989C24.9007 2.2322 24.9683 2.41722 24.9912 2.61026L25 2.75776V19.0078C25 19.2272 24.9422 19.4427 24.8325 19.6327C24.7228 19.8228 24.565 19.9806 24.375 20.0903C24.185 20.2 23.9694 20.2577 23.75 20.2577C23.5306 20.2577 23.315 20.2 23.125 20.0903C21.7087 19.2724 20.1134 18.8145 18.4789 18.7565C16.8444 18.6985 15.2207 19.0423 13.75 19.7578V0.790259C15.4767 0.14527 17.3247 -0.109862 19.1616 0.0431392C20.9985 0.196141 22.7788 0.753489 24.375 1.67526ZM11.25 0.791509L11.2513 19.759C9.8385 19.0713 8.28357 18.7261 6.71252 18.7515C5.14147 18.7769 3.59852 19.1722 2.20875 19.9053L1.8 20.1303L1.67125 20.1853L1.61 20.2053L1.4725 20.2378L1.39625 20.2503L1.25 20.2578H1.1975L1.06 20.2428L0.96375 20.2253L0.82875 20.1853L0.67125 20.1153L0.5525 20.0453L0.44125 19.9615L0.36625 19.8915L0.275 19.789L0.195 19.6778L0.1675 19.6328L0.1275 19.5578L0.0725001 19.429L0.0525001 19.3678L0.02 19.2303L0.00750005 19.154L0.00250012 19.0928L0 2.75776C5.57402e-06 2.53834 0.0577661 2.32279 0.167476 2.13278C0.277186 1.94276 0.434981 1.78497 0.625 1.67526C2.22131 0.753692 4.00167 0.196562 5.83855 0.043777C7.67544 -0.109008 9.52338 0.146332 11.25 0.791509Z" fill="white"/>
</svg>
