<svg width="30" height="30" viewBox="0 0 30 30" fill="none" xmlns="http://www.w3.org/2000/svg">
<path d="M15 12.5C16.3261 12.5 17.5979 11.9732 18.5355 11.0355C19.4732 10.0979 20 8.82608 20 7.5C20 6.17392 19.4732 4.90215 18.5355 3.96447C17.5979 3.02678 16.3261 2.5 15 2.5C13.6739 2.5 12.4021 3.02678 11.4645 3.96447C10.5268 4.90215 10 6.17392 10 7.5C10 8.82608 10.5268 10.0979 11.4645 11.0355C12.4021 11.9732 13.6739 12.5 15 12.5ZM6.875 16.25C7.7038 16.25 8.49866 15.9208 9.08471 15.3347C9.67076 14.7487 10 13.9538 10 13.125C10 12.2962 9.67076 11.5013 9.08471 10.9153C8.49866 10.3292 7.7038 10 6.875 10C6.0462 10 5.25134 10.3292 4.66529 10.9153C4.07924 11.5013 3.75 12.2962 3.75 13.125C3.75 13.9538 4.07924 14.7487 4.66529 15.3347C5.25134 15.9208 6.0462 16.25 6.875 16.25ZM26.25 13.125C26.25 13.9538 25.9208 14.7487 25.3347 15.3347C24.7487 15.9208 23.9538 16.25 23.125 16.25C22.2962 16.25 21.5013 15.9208 20.9153 15.3347C20.3292 14.7487 20 13.9538 20 13.125C20 12.2962 20.3292 11.5013 20.9153 10.9153C21.5013 10.3292 22.2962 10 23.125 10C23.9538 10 24.7487 10.3292 25.3347 10.9153C25.9208 11.5013 26.25 12.2962 26.25 13.125ZM15 13.75C16.6576 13.75 18.2473 14.4085 19.4194 15.5806C20.5915 16.7527 21.25 18.3424 21.25 20V27.5H8.75V20C8.75 18.3424 9.40848 16.7527 10.5806 15.5806C11.7527 14.4085 13.3424 13.75 15 13.75ZM6.25 20C6.25 19.1338 6.375 18.2975 6.61 17.5075L6.3975 17.525C5.3261 17.6426 4.33583 18.1516 3.61658 18.9544C2.89733 19.7571 2.49972 20.7972 2.5 21.875V27.5H6.25V20ZM27.5 27.5V21.875C27.5001 20.7605 27.0749 19.6879 26.3111 18.8762C25.5473 18.0646 24.5025 17.575 23.39 17.5075C23.6238 18.2975 23.75 19.1338 23.75 20V27.5H27.5Z" fill="white"/>
</svg>
