<svg width="4" height="5" viewBox="0 0 4 5" fill="none" xmlns="http://www.w3.org/2000/svg">
<path fill-rule="evenodd" clip-rule="evenodd" d="M2.93419 2.05044C3.05136 2.16765 3.11719 2.32659 3.11719 2.49232C3.11719 2.65805 3.05136 2.81699 2.93419 2.93419L1.05919 4.80919C0.941318 4.92304 0.783442 4.98604 0.619569 4.98462C0.455696 4.98319 0.298938 4.91746 0.183058 4.80158C0.0671781 4.6857 0.00144764 4.52894 2.36266e-05 4.36507C-0.00140039 4.2012 0.0615961 4.04332 0.175445 3.92544L1.60857 2.49232L0.175445 1.05919C0.0615961 0.941318 -0.00140039 0.783442 2.36266e-05 0.619569C0.00144764 0.455696 0.0671781 0.298938 0.183058 0.183058C0.298938 0.0671781 0.455696 0.00144764 0.619569 2.36266e-05C0.783442 -0.00140039 0.941318 0.0615961 1.05919 0.175445L2.93419 2.05044Z" fill="#0064E0"/>
</svg>
