<svg width="34" height="42" viewBox="0 0 34 42" fill="none" xmlns="http://www.w3.org/2000/svg">
<path d="M22.9167 4.16667H4.16667V37.5H29.1667V10.4167H22.9167V4.16667ZM4.16667 0H25L33.3333 8.33333V37.5C33.3333 38.6051 32.8943 39.6649 32.1129 40.4463C31.3315 41.2277 30.2717 41.6667 29.1667 41.6667H4.16667C3.0616 41.6667 2.00179 41.2277 1.22039 40.4463C0.438987 39.6649 0 38.6051 0 37.5V4.16667C0 3.0616 0.438987 2.00179 1.22039 1.22039C2.00179 0.438987 3.0616 0 4.16667 0ZM8.33333 18.75H25V22.9167H8.33333V18.75ZM8.33333 27.0833H25V31.25H8.33333V27.0833Z" fill="#677281"/>
</svg>
