<svg width="34" height="42" viewBox="0 0 34 42" fill="none" xmlns="http://www.w3.org/2000/svg">
<path d="M2.08337 37.4999V4.16659C2.08337 3.61405 2.30287 3.08415 2.69357 2.69345C3.08427 2.30275 3.61417 2.08325 4.16671 2.08325H17.025C18.13 2.08349 19.1897 2.52263 19.9709 3.30409L30.0292 13.3624C30.8107 14.1436 31.2498 15.2033 31.25 16.3083V37.4999C31.25 38.0525 31.0305 38.5824 30.6398 38.9731C30.2491 39.3638 29.7192 39.5833 29.1667 39.5833H4.16671C3.61417 39.5833 3.08427 39.3638 2.69357 38.9731C2.30287 38.5824 2.08337 38.0525 2.08337 37.4999Z" stroke="#677281" stroke-width="4.16667" stroke-linejoin="round"/>
<path d="M16.6667 2.08325V14.5833C16.6667 15.1358 16.8862 15.6657 17.2769 16.0564C17.6676 16.4471 18.1975 16.6666 18.7501 16.6666H31.2501" stroke="#677281" stroke-width="4.16667" stroke-linejoin="round"/>
</svg>
