<svg width="34" height="42" viewBox="0 0 34 42" fill="none" xmlns="http://www.w3.org/2000/svg">
<path d="M0 4.16667C0 3.0616 0.438987 2.00179 1.22039 1.22039C2.00179 0.438987 3.0616 0 4.16667 0H20.8333C21.3858 0.000117995 21.9156 0.219689 22.3062 0.610417L32.7229 11.0271C33.1136 11.4177 33.3332 11.9475 33.3333 12.5V37.5C33.3333 38.6051 32.8943 39.6649 32.1129 40.4463C31.3315 41.2277 30.2717 41.6667 29.1667 41.6667H4.16667C3.0616 41.6667 2.00179 41.2277 1.22039 40.4463C0.438987 39.6649 0 38.6051 0 37.5V4.16667ZM28.3042 12.5L20.8333 5.02917V12.5H28.3042ZM16.6667 4.16667H4.16667V37.5H29.1667V16.6667H18.75C18.1975 16.6667 17.6676 16.4472 17.2769 16.0565C16.8862 15.6658 16.6667 15.1359 16.6667 14.5833V4.16667ZM16.6667 20.8333C17.2192 20.8333 17.7491 21.0528 18.1398 21.4435C18.5305 21.8342 18.75 22.3641 18.75 22.9167V25H20.8333C21.3859 25 21.9158 25.2195 22.3065 25.6102C22.6972 26.0009 22.9167 26.5308 22.9167 27.0833C22.9167 27.6359 22.6972 28.1658 22.3065 28.5565C21.9158 28.9472 21.3859 29.1667 20.8333 29.1667H18.75V31.25C18.75 31.8025 18.5305 32.3324 18.1398 32.7231C17.7491 33.1138 17.2192 33.3333 16.6667 33.3333C16.1141 33.3333 15.5842 33.1138 15.1935 32.7231C14.8028 32.3324 14.5833 31.8025 14.5833 31.25V29.1667H12.5C11.9475 29.1667 11.4176 28.9472 11.0269 28.5565C10.6362 28.1658 10.4167 27.6359 10.4167 27.0833C10.4167 26.5308 10.6362 26.0009 11.0269 25.6102C11.4176 25.2195 11.9475 25 12.5 25H14.5833V22.9167C14.5833 22.3641 14.8028 21.8342 15.1935 21.4435C15.5842 21.0528 16.1141 20.8333 16.6667 20.8333Z" fill="#677281"/>
</svg>
