<svg width="25" height="25" viewBox="0 0 25 25" fill="none" xmlns="http://www.w3.org/2000/svg">
<path d="M6.875 18.125L15.625 15.625L18.125 6.875L9.375 9.375L6.875 18.125ZM12.5 14.375C11.9792 14.375 11.5367 14.1929 11.1725 13.8287C10.8083 13.4646 10.6258 13.0217 10.625 12.5C10.6242 11.9783 10.8067 11.5358 11.1725 11.1725C11.5383 10.8092 11.9808 10.6267 12.5 10.625C13.0192 10.6233 13.4621 10.8058 13.8288 11.1725C14.1954 11.5392 14.3775 11.9817 14.375 12.5C14.3725 13.0183 14.1904 13.4612 13.8288 13.8287C13.4671 14.1962 13.0242 14.3783 12.5 14.375ZM12.5 25C10.7708 25 9.14584 24.6717 7.625 24.015C6.10417 23.3583 4.78125 22.4679 3.65625 21.3437C2.53125 20.2196 1.64084 18.8967 0.985002 17.375C0.329168 15.8533 0.000834916 14.2283 1.58228e-06 12.5C-0.000831751 10.7717 0.327502 9.14667 0.985002 7.625C1.6425 6.10333 2.53292 4.78042 3.65625 3.65625C4.77958 2.53208 6.1025 1.64167 7.625 0.985C9.1475 0.328333 10.7725 0 12.5 0C14.2275 0 15.8525 0.328333 17.375 0.985C18.8975 1.64167 20.2204 2.53208 21.3438 3.65625C22.4671 4.78042 23.3579 6.10333 24.0163 7.625C24.6746 9.14667 25.0025 10.7717 25 12.5C24.9975 14.2283 24.6692 15.8533 24.015 17.375C23.3608 18.8967 22.4704 20.2196 21.3438 21.3437C20.2171 22.4679 18.8942 23.3587 17.375 24.0162C15.8558 24.6737 14.2308 25.0017 12.5 25Z" fill="black"/>
</svg>
