<svg width="13" height="13" viewBox="0 0 13 13" fill="none" xmlns="http://www.w3.org/2000/svg">
<path d="M6.5 12.5C7.68669 12.5 8.84673 12.1481 9.83342 11.4888C10.8201 10.8295 11.5892 9.89246 12.0433 8.7961C12.4974 7.69975 12.6162 6.49335 12.3847 5.32946C12.1532 4.16557 11.5818 3.09648 10.7426 2.25736C9.90353 1.41825 8.83443 0.846802 7.67054 0.615291C6.50666 0.38378 5.30026 0.5026 4.2039 0.956725C3.10754 1.41085 2.17047 2.17989 1.51118 3.16658C0.851894 4.15328 0.5 5.31331 0.5 6.5C0.5 7.492 0.74 8.42667 1.16667 9.25134L0.5 12.5L3.74867 11.8333C4.57267 12.2593 5.50867 12.5 6.5 12.5Z" stroke="#76767C" stroke-linecap="round" stroke-linejoin="round"/>
</svg>
