<svg width="25" height="18" viewBox="0 0 25 18" fill="none" xmlns="http://www.w3.org/2000/svg">
<path fill-rule="evenodd" clip-rule="evenodd" d="M25 0V17.5H0V0H25ZM4.99998 13.75H2.50002V15H4.99998V13.75ZM22.5 13.75H20V15H22.5V13.75ZM10 5.625V11.875L15.625 8.74998L10 5.625ZM4.99998 10H2.50002V11.25H4.99998V10ZM22.5 10H20V11.25H22.5V10ZM4.99998 6.25002H2.50002V7.5H4.99998V6.25002ZM22.5 6.25002H20V7.5H22.5V6.25002ZM4.99998 2.50002H2.50002V3.75H4.99998V2.50002ZM22.5 2.50002H20V3.75H22.5V2.50002Z" fill="black"/>
</svg>
